<svg width="93" height="92" viewBox="0 0 93 92" fill="none" xmlns="http://www.w3.org/2000/svg">
<g clip-path="url(#clip0_3408_4354)">
<mask id="path-1-inside-1_3408_4354" fill="white">
<path fill-rule="evenodd" clip-rule="evenodd" d="M31.5473 53.2363C34.5273 53.2363 36.943 50.8205 36.943 47.8406C36.943 44.8606 34.5273 42.4448 31.5473 42.4448C28.5673 42.4448 26.1516 44.8606 26.1516 47.8406C26.1516 50.8205 28.5673 53.2363 31.5473 53.2363ZM36.943 55.3946C36.943 60.1184 36.0126 64.796 34.2049 69.1603C32.3971 73.5245 29.7475 77.49 26.4072 80.8303C23.0669 84.1705 19.1015 86.8202 14.7372 88.6279C10.3729 90.4356 5.69536 91.3661 0.971512 91.3661C-3.75234 91.3661 -8.42993 90.4356 -12.7942 88.6279C-17.1585 86.8202 -21.1239 84.1705 -24.4642 80.8303C-27.8045 77.49 -30.4541 73.5245 -32.2618 69.1603C-34.0696 64.796 -35 60.1184 -35 55.3946L-23.759 55.3946C-23.759 58.6422 -23.1193 61.8581 -21.8765 64.8585C-20.6337 67.859 -18.8121 70.5853 -16.5156 72.8817C-14.2192 75.1781 -11.4929 76.9998 -8.49245 78.2426C-5.49201 79.4854 -2.27615 80.1251 0.971512 80.1251C4.21917 80.1251 7.43503 79.4854 10.4355 78.2426C13.4359 76.9998 16.1622 75.1781 18.4586 72.8817C20.7551 70.5853 22.5767 67.859 23.8195 64.8585C25.0624 61.8581 25.702 58.6422 25.702 55.3946H36.943ZM20.3961 55.3946C20.3961 57.9454 19.8937 60.4713 18.9175 62.828C17.9413 65.1848 16.5105 67.3261 14.7068 69.1298C12.903 70.9336 10.7617 72.3644 8.40499 73.3406C6.04829 74.3168 3.52239 74.8192 0.971512 74.8192C-1.57936 74.8192 -4.10526 74.3168 -6.46197 73.3406C-8.81867 72.3644 -10.96 70.9336 -12.7638 69.1298C-14.5675 67.3261 -15.9983 65.1848 -16.9745 62.828C-17.9507 60.4713 -18.4531 57.9454 -18.4531 55.3946L-8.36793 55.3946C-8.36793 56.621 -8.12636 57.8355 -7.65701 58.9686C-7.18766 60.1017 -6.49972 61.1313 -5.63247 61.9986C-4.76522 62.8658 -3.73565 63.5537 -2.60254 64.0231C-1.46943 64.4924 -0.254959 64.734 0.971512 64.734C2.19799 64.734 3.41245 64.4924 4.54556 64.0231C5.67868 63.5537 6.70825 62.8658 7.5755 61.9986C8.44275 61.1313 9.13068 60.1017 9.60004 58.9686C10.0694 57.8355 10.311 56.621 10.311 55.3946L20.3961 55.3946Z"/>
</mask>
<path fill-rule="evenodd" clip-rule="evenodd" d="M31.5473 53.2363C34.5273 53.2363 36.943 50.8205 36.943 47.8406C36.943 44.8606 34.5273 42.4448 31.5473 42.4448C28.5673 42.4448 26.1516 44.8606 26.1516 47.8406C26.1516 50.8205 28.5673 53.2363 31.5473 53.2363ZM36.943 55.3946C36.943 60.1184 36.0126 64.796 34.2049 69.1603C32.3971 73.5245 29.7475 77.49 26.4072 80.8303C23.0669 84.1705 19.1015 86.8202 14.7372 88.6279C10.3729 90.4356 5.69536 91.3661 0.971512 91.3661C-3.75234 91.3661 -8.42993 90.4356 -12.7942 88.6279C-17.1585 86.8202 -21.1239 84.1705 -24.4642 80.8303C-27.8045 77.49 -30.4541 73.5245 -32.2618 69.1603C-34.0696 64.796 -35 60.1184 -35 55.3946L-23.759 55.3946C-23.759 58.6422 -23.1193 61.8581 -21.8765 64.8585C-20.6337 67.859 -18.8121 70.5853 -16.5156 72.8817C-14.2192 75.1781 -11.4929 76.9998 -8.49245 78.2426C-5.49201 79.4854 -2.27615 80.1251 0.971512 80.1251C4.21917 80.1251 7.43503 79.4854 10.4355 78.2426C13.4359 76.9998 16.1622 75.1781 18.4586 72.8817C20.7551 70.5853 22.5767 67.859 23.8195 64.8585C25.0624 61.8581 25.702 58.6422 25.702 55.3946H36.943ZM20.3961 55.3946C20.3961 57.9454 19.8937 60.4713 18.9175 62.828C17.9413 65.1848 16.5105 67.3261 14.7068 69.1298C12.903 70.9336 10.7617 72.3644 8.40499 73.3406C6.04829 74.3168 3.52239 74.8192 0.971512 74.8192C-1.57936 74.8192 -4.10526 74.3168 -6.46197 73.3406C-8.81867 72.3644 -10.96 70.9336 -12.7638 69.1298C-14.5675 67.3261 -15.9983 65.1848 -16.9745 62.828C-17.9507 60.4713 -18.4531 57.9454 -18.4531 55.3946L-8.36793 55.3946C-8.36793 56.621 -8.12636 57.8355 -7.65701 58.9686C-7.18766 60.1017 -6.49972 61.1313 -5.63247 61.9986C-4.76522 62.8658 -3.73565 63.5537 -2.60254 64.0231C-1.46943 64.4924 -0.254959 64.734 0.971512 64.734C2.19799 64.734 3.41245 64.4924 4.54556 64.0231C5.67868 63.5537 6.70825 62.8658 7.5755 61.9986C8.44275 61.1313 9.13068 60.1017 9.60004 58.9686C10.0694 57.8355 10.311 56.621 10.311 55.3946L20.3961 55.3946Z" fill="white"/>
<path d="M34.2049 69.1603L32.3571 68.3949L32.3571 68.3949L34.2049 69.1603ZM36.943 55.3946H38.943V53.3946H36.943V55.3946ZM14.7372 88.6279L13.9718 86.7802L13.9718 86.7802L14.7372 88.6279ZM0.971512 91.3661L0.971513 89.3661H0.971512V91.3661ZM-24.4642 80.8303L-23.05 79.4161L-23.05 79.4161L-24.4642 80.8303ZM-32.2618 69.1603L-30.4141 68.3949L-32.2618 69.1603ZM-35 55.3946L-35 53.3946L-37 53.3946V55.3946H-35ZM-23.759 55.3946H-21.759V53.3946L-23.759 53.3946L-23.759 55.3946ZM-21.8765 64.8585L-23.7243 65.6239L-23.7243 65.6239L-21.8765 64.8585ZM-8.49245 78.2426L-7.72709 76.3948L-7.72709 76.3948L-8.49245 78.2426ZM0.971512 80.1251L0.971514 78.1251H0.971512V80.1251ZM10.4355 78.2426L11.2008 80.0904L11.2008 80.0904L10.4355 78.2426ZM18.4586 72.8817L19.8729 74.2959L19.8729 74.2959L18.4586 72.8817ZM25.702 55.3946V53.3946H23.702V55.3946H25.702ZM18.9175 62.828L17.0698 62.0627L17.0698 62.0627L18.9175 62.828ZM20.3961 55.3946H22.3961V53.3946H20.3961V55.3946ZM14.7068 69.1298L13.2926 67.7156L13.2926 67.7156L14.7068 69.1298ZM8.40499 73.3406L7.63963 71.4928L7.63962 71.4928L8.40499 73.3406ZM-6.46197 73.3406L-7.22733 75.1883L-7.22733 75.1883L-6.46197 73.3406ZM-12.7638 69.1298L-11.3496 67.7156L-11.3496 67.7156L-12.7638 69.1298ZM-16.9745 62.828L-15.1267 62.0627L-15.1267 62.0627L-16.9745 62.828ZM-18.4531 55.3946L-18.4531 53.3946L-20.4531 53.3946V55.3946H-18.4531ZM-8.36793 55.3946H-6.36793V53.3946L-8.36793 53.3946L-8.36793 55.3946ZM-7.65701 58.9686L-9.50477 59.734L-9.50477 59.734L-7.65701 58.9686ZM-2.60254 64.0231L-3.36791 65.8708L-3.36791 65.8709L-2.60254 64.0231ZM7.5755 61.9986L6.16128 60.5843L6.16128 60.5843L7.5755 61.9986ZM9.60004 58.9686L11.4478 59.734L11.4478 59.734L9.60004 58.9686ZM10.311 55.3946V53.3946H8.31096V55.3946H10.311ZM34.943 47.8406C34.943 49.716 33.4227 51.2363 31.5473 51.2363V55.2363C35.6318 55.2363 38.943 51.9251 38.943 47.8406H34.943ZM31.5473 44.4448C33.4227 44.4448 34.943 45.9651 34.943 47.8406H38.943C38.943 43.756 35.6318 40.4448 31.5473 40.4448V44.4448ZM28.1516 47.8406C28.1516 45.9651 29.6719 44.4448 31.5473 44.4448V40.4448C27.4628 40.4448 24.1516 43.756 24.1516 47.8406H28.1516ZM31.5473 51.2363C29.6719 51.2363 28.1516 49.716 28.1516 47.8406H24.1516C24.1516 51.9251 27.4628 55.2363 31.5473 55.2363V51.2363ZM36.0526 69.9256C37.9609 65.3187 38.943 60.3811 38.943 55.3946H34.943C34.943 59.8558 34.0643 64.2733 32.3571 68.3949L36.0526 69.9256ZM27.8214 82.2445C31.3474 78.7185 34.1444 74.5326 36.0526 69.9256L32.3571 68.3949C30.6499 72.5165 28.1475 76.2615 24.993 79.4161L27.8214 82.2445ZM15.5026 90.4757C20.1095 88.5674 24.2954 85.7705 27.8214 82.2445L24.993 79.4161C21.8385 82.5706 18.0935 85.0729 13.9718 86.7802L15.5026 90.4757ZM0.97151 93.3661C5.958 93.3661 10.8957 92.3839 15.5026 90.4757L13.9718 86.7802C9.85023 88.4874 5.43271 89.3661 0.971513 89.3661L0.97151 93.3661ZM-13.5596 90.4757C-8.95264 92.3839 -4.01498 93.3661 0.971512 93.3661V89.3661C-3.48969 89.3661 -7.90721 88.4874 -12.0288 86.7802L-13.5596 90.4757ZM-25.8784 82.2445C-22.3524 85.7705 -18.1665 88.5674 -13.5596 90.4757L-12.0288 86.7802C-16.1504 85.0729 -19.8954 82.5706 -23.05 79.4161L-25.8784 82.2445ZM-34.1096 69.9256C-32.2013 74.5326 -29.4044 78.7185 -25.8784 82.2445L-23.05 79.4161C-26.2045 76.2615 -28.7068 72.5165 -30.4141 68.3949L-34.1096 69.9256ZM-37 55.3946C-37 60.3811 -36.0178 65.3187 -34.1096 69.9256L-30.4141 68.3949C-32.1213 64.2733 -33 59.8558 -33 55.3946H-37ZM-23.759 53.3946L-35 53.3946L-35 57.3946L-23.759 57.3946L-23.759 53.3946ZM-20.0288 64.0932C-21.1711 61.3354 -21.759 58.3796 -21.759 55.3946H-25.759C-25.759 58.9049 -25.0676 62.3808 -23.7243 65.6239L-20.0288 64.0932ZM-15.1014 71.4675C-17.2121 69.3568 -18.8864 66.851 -20.0288 64.0932L-23.7243 65.6239C-22.3809 68.867 -20.412 71.8137 -17.9298 74.2959L-15.1014 71.4675ZM-7.72709 76.3948C-10.4849 75.2525 -12.9907 73.5782 -15.1014 71.4675L-17.9298 74.2959C-15.4477 76.7781 -12.5009 78.747 -9.25782 80.0904L-7.72709 76.3948ZM0.971512 78.1251C-2.01351 78.1251 -4.96929 77.5372 -7.72709 76.3948L-9.25782 80.0904C-6.01472 81.4337 -2.53879 82.1251 0.971512 82.1251V78.1251ZM9.67011 76.3948C6.91231 77.5372 3.95653 78.1251 0.971514 78.1251L0.971509 82.1251C4.48181 82.1251 7.95774 81.4337 11.2008 80.0904L9.67011 76.3948ZM17.0444 71.4675C14.9337 73.5782 12.4279 75.2525 9.67011 76.3948L11.2008 80.0904C14.4439 78.747 17.3907 76.7781 19.8729 74.2959L17.0444 71.4675ZM21.9718 64.0932C20.8295 66.851 19.1552 69.3568 17.0444 71.4675L19.8729 74.2959C22.355 71.8137 24.324 68.867 25.6673 65.6239L21.9718 64.0932ZM23.702 55.3946C23.702 58.3796 23.1141 61.3354 21.9718 64.0932L25.6673 65.6239C27.0106 62.3808 27.702 58.9049 27.702 55.3946H23.702ZM36.943 53.3946H25.702V57.3946H36.943V53.3946ZM20.7653 63.5934C21.842 60.9941 22.3961 58.2081 22.3961 55.3946H18.3961C18.3961 57.6828 17.9454 59.9486 17.0698 62.0627L20.7653 63.5934ZM16.121 70.5441C18.1105 68.5546 19.6886 66.1928 20.7653 63.5934L17.0698 62.0627C16.1941 64.1767 14.9106 66.0976 13.2926 67.7156L16.121 70.5441ZM9.17036 75.1883C11.7697 74.1116 14.1315 72.5335 16.121 70.5441L13.2926 67.7156C11.6746 69.3337 9.75368 70.6171 7.63963 71.4928L9.17036 75.1883ZM0.971512 76.8192C3.78503 76.8192 6.57101 76.265 9.17036 75.1883L7.63962 71.4928C5.52557 72.3685 3.25975 72.8192 0.971512 72.8192V76.8192ZM-7.22733 75.1883C-4.62798 76.265 -1.84201 76.8192 0.971512 76.8192V72.8192C-1.31672 72.8192 -3.58255 72.3685 -5.6966 71.4928L-7.22733 75.1883ZM-14.178 70.5441C-12.1885 72.5335 -9.82669 74.1116 -7.22733 75.1883L-5.6966 71.4928C-7.81065 70.6171 -9.73153 69.3337 -11.3496 67.7156L-14.178 70.5441ZM-18.8223 63.5934C-17.7456 66.1928 -16.1674 68.5546 -14.178 70.5441L-11.3496 67.7156C-12.9676 66.0976 -14.2511 64.1767 -15.1267 62.0627L-18.8223 63.5934ZM-20.4531 55.3946C-20.4531 58.2081 -19.8989 60.9941 -18.8223 63.5934L-15.1267 62.0627C-16.0024 59.9486 -16.4531 57.6828 -16.4531 55.3946H-20.4531ZM-8.36793 53.3946L-18.4531 53.3946L-18.4531 57.3946L-8.36793 57.3946L-8.36793 53.3946ZM-5.80925 58.2033C-6.17809 57.3128 -6.36793 56.3584 -6.36793 55.3946H-10.3679C-10.3679 56.8837 -10.0746 58.3582 -9.50477 59.734L-5.80925 58.2033ZM-4.21826 60.5843C-4.89979 59.9028 -5.44041 59.0937 -5.80925 58.2033L-9.50477 59.734C-8.93491 61.1098 -8.09965 62.3598 -7.04668 63.4128L-4.21826 60.5843ZM-1.83717 62.1753C-2.72763 61.8065 -3.53673 61.2659 -4.21826 60.5843L-7.04668 63.4128C-5.99372 64.4657 -4.74367 65.301 -3.36791 65.8708L-1.83717 62.1753ZM0.971512 62.734C0.00768393 62.734 -0.94671 62.5442 -1.83717 62.1753L-3.36791 65.8709C-1.99214 66.4407 -0.517602 66.734 0.971512 66.734V62.734ZM3.7802 62.1753C2.88973 62.5442 1.93534 62.734 0.971512 62.734V66.734C2.46063 66.734 3.93516 66.4407 5.31093 65.8709L3.7802 62.1753ZM6.16128 60.5843C5.47976 61.2659 4.67066 61.8065 3.7802 62.1753L5.31093 65.8709C6.68669 65.301 7.93675 64.4657 8.98971 63.4128L6.16128 60.5843ZM7.75228 58.2033C7.38343 59.0937 6.84281 59.9028 6.16128 60.5843L8.98971 63.4128C10.0427 62.3598 10.8779 61.1098 11.4478 59.734L7.75228 58.2033ZM8.31096 55.3946C8.31096 56.3584 8.12112 57.3128 7.75228 58.2033L11.4478 59.734C12.0177 58.3582 12.311 56.8837 12.311 55.3946H8.31096ZM20.3961 53.3946L10.311 53.3946V57.3946L20.3961 57.3946V53.3946Z" fill="#5255A4" mask="url(#path-1-inside-1_3408_4354)"/>
<mask id="path-3-inside-2_3408_4354" fill="white">
<path fill-rule="evenodd" clip-rule="evenodd" d="M124.352 53.2363C127.332 53.2363 129.748 50.8205 129.748 47.8406C129.748 44.8606 127.332 42.4448 124.352 42.4448C121.372 42.4448 118.956 44.8606 118.956 47.8406C118.956 50.8205 121.372 53.2363 124.352 53.2363ZM129.748 55.3946C129.748 60.1184 128.817 64.796 127.01 69.1603C125.202 73.5245 122.552 77.49 119.212 80.8303C115.872 84.1705 111.906 86.8202 107.542 88.6279C103.178 90.4356 98.5 91.3661 93.7762 91.3661C89.0524 91.3661 84.3748 90.4356 80.0105 88.6279C75.6462 86.8202 71.6808 84.1705 68.3405 80.8303C65.0002 77.49 62.3506 73.5245 60.5429 69.1603C58.7351 64.796 57.8047 60.1184 57.8047 55.3946L69.0457 55.3946C69.0457 58.6422 69.6853 61.8581 70.9282 64.8585C72.171 67.859 73.9926 70.5853 76.2891 72.8817C78.5855 75.1781 81.3118 76.9998 84.3122 78.2426C87.3127 79.4854 90.5285 80.1251 93.7762 80.1251C97.0239 80.1251 100.24 79.4854 103.24 78.2426C106.241 76.9998 108.967 75.1781 111.263 72.8817C113.56 70.5853 115.381 67.859 116.624 64.8585C117.867 61.8581 118.507 58.6422 118.507 55.3946H129.748ZM113.201 55.3946C113.201 57.9454 112.698 60.4713 111.722 62.828C110.746 65.1848 109.315 67.3261 107.511 69.1298C105.708 70.9336 103.566 72.3644 101.21 73.3406C98.853 74.3168 96.3271 74.8192 93.7762 74.8192C91.2253 74.8192 88.6994 74.3168 86.3427 73.3406C83.986 72.3644 81.8447 70.9336 80.0409 69.1298C78.2372 67.3261 76.8064 65.1848 75.8302 62.828C74.854 60.4713 74.3516 57.9454 74.3516 55.3946L84.4368 55.3946C84.4368 56.621 84.6783 57.8355 85.1477 58.9686C85.617 60.1017 86.305 61.1313 87.1722 61.9986C88.0395 62.8658 89.069 63.5537 90.2021 64.0231C91.3353 64.4924 92.5497 64.734 93.7762 64.734C95.0027 64.734 96.2171 64.4924 97.3503 64.0231C98.4834 63.5537 99.5129 62.8658 100.38 61.9986C101.247 61.1313 101.935 60.1017 102.405 58.9686C102.874 57.8355 103.116 56.621 103.116 55.3946L113.201 55.3946Z"/>
</mask>
<path fill-rule="evenodd" clip-rule="evenodd" d="M124.352 53.2363C127.332 53.2363 129.748 50.8205 129.748 47.8406C129.748 44.8606 127.332 42.4448 124.352 42.4448C121.372 42.4448 118.956 44.8606 118.956 47.8406C118.956 50.8205 121.372 53.2363 124.352 53.2363ZM129.748 55.3946C129.748 60.1184 128.817 64.796 127.01 69.1603C125.202 73.5245 122.552 77.49 119.212 80.8303C115.872 84.1705 111.906 86.8202 107.542 88.6279C103.178 90.4356 98.5 91.3661 93.7762 91.3661C89.0524 91.3661 84.3748 90.4356 80.0105 88.6279C75.6462 86.8202 71.6808 84.1705 68.3405 80.8303C65.0002 77.49 62.3506 73.5245 60.5429 69.1603C58.7351 64.796 57.8047 60.1184 57.8047 55.3946L69.0457 55.3946C69.0457 58.6422 69.6853 61.8581 70.9282 64.8585C72.171 67.859 73.9926 70.5853 76.2891 72.8817C78.5855 75.1781 81.3118 76.9998 84.3122 78.2426C87.3127 79.4854 90.5285 80.1251 93.7762 80.1251C97.0239 80.1251 100.24 79.4854 103.24 78.2426C106.241 76.9998 108.967 75.1781 111.263 72.8817C113.56 70.5853 115.381 67.859 116.624 64.8585C117.867 61.8581 118.507 58.6422 118.507 55.3946H129.748ZM113.201 55.3946C113.201 57.9454 112.698 60.4713 111.722 62.828C110.746 65.1848 109.315 67.3261 107.511 69.1298C105.708 70.9336 103.566 72.3644 101.21 73.3406C98.853 74.3168 96.3271 74.8192 93.7762 74.8192C91.2253 74.8192 88.6994 74.3168 86.3427 73.3406C83.986 72.3644 81.8447 70.9336 80.0409 69.1298C78.2372 67.3261 76.8064 65.1848 75.8302 62.828C74.854 60.4713 74.3516 57.9454 74.3516 55.3946L84.4368 55.3946C84.4368 56.621 84.6783 57.8355 85.1477 58.9686C85.617 60.1017 86.305 61.1313 87.1722 61.9986C88.0395 62.8658 89.069 63.5537 90.2021 64.0231C91.3353 64.4924 92.5497 64.734 93.7762 64.734C95.0027 64.734 96.2171 64.4924 97.3503 64.0231C98.4834 63.5537 99.5129 62.8658 100.38 61.9986C101.247 61.1313 101.935 60.1017 102.405 58.9686C102.874 57.8355 103.116 56.621 103.116 55.3946L113.201 55.3946Z" fill="white"/>
<path d="M127.01 69.1603L125.162 68.3949L125.162 68.3949L127.01 69.1603ZM129.748 55.3946H131.748V53.3946H129.748V55.3946ZM107.542 88.6279L106.777 86.7802L106.777 86.7802L107.542 88.6279ZM93.7762 91.3661L93.7762 89.3661H93.7762V91.3661ZM68.3405 80.8303L69.7547 79.4161L69.7547 79.4161L68.3405 80.8303ZM60.5429 69.1603L62.3906 68.3949L60.5429 69.1603ZM57.8047 55.3946L57.8047 53.3946L55.8047 53.3946V55.3946H57.8047ZM69.0457 55.3946H71.0457V53.3946L69.0457 53.3946L69.0457 55.3946ZM70.9282 64.8585L69.0804 65.6239L69.0804 65.6239L70.9282 64.8585ZM84.3122 78.2426L85.0776 76.3948L85.0776 76.3948L84.3122 78.2426ZM93.7762 80.1251L93.7762 78.1251H93.7762V80.1251ZM103.24 78.2426L104.006 80.0904L104.006 80.0904L103.24 78.2426ZM111.263 72.8817L112.678 74.2959L112.678 74.2959L111.263 72.8817ZM118.507 55.3946V53.3946H116.507V55.3946H118.507ZM111.722 62.828L109.874 62.0627L109.874 62.0627L111.722 62.828ZM113.201 55.3946H115.201V53.3946H113.201V55.3946ZM107.511 69.1298L106.097 67.7156L106.097 67.7156L107.511 69.1298ZM101.21 73.3406L100.444 71.4928L100.444 71.4928L101.21 73.3406ZM86.3427 73.3406L85.5774 75.1883L85.5774 75.1883L86.3427 73.3406ZM80.0409 69.1298L81.4551 67.7156L81.4551 67.7156L80.0409 69.1298ZM75.8302 62.828L77.678 62.0627L77.678 62.0627L75.8302 62.828ZM74.3516 55.3946L74.3516 53.3946L72.3516 53.3946V55.3946H74.3516ZM84.4368 55.3946H86.4368V53.3946L84.4368 53.3946L84.4368 55.3946ZM85.1477 58.9686L83.2999 59.734L83.2999 59.734L85.1477 58.9686ZM90.2021 64.0231L89.4368 65.8708L89.4368 65.8709L90.2021 64.0231ZM100.38 61.9986L98.966 60.5843L98.966 60.5843L100.38 61.9986ZM102.405 58.9686L104.252 59.734L104.252 59.734L102.405 58.9686ZM103.116 55.3946V53.3946H101.116V55.3946H103.116ZM127.748 47.8406C127.748 49.716 126.227 51.2363 124.352 51.2363V55.2363C128.437 55.2363 131.748 51.9251 131.748 47.8406H127.748ZM124.352 44.4448C126.227 44.4448 127.748 45.9651 127.748 47.8406H131.748C131.748 43.756 128.437 40.4448 124.352 40.4448V44.4448ZM120.956 47.8406C120.956 45.9651 122.477 44.4448 124.352 44.4448V40.4448C120.267 40.4448 116.956 43.756 116.956 47.8406H120.956ZM124.352 51.2363C122.477 51.2363 120.956 49.716 120.956 47.8406H116.956C116.956 51.9251 120.267 55.2363 124.352 55.2363V51.2363ZM128.857 69.9256C130.766 65.3187 131.748 60.3811 131.748 55.3946H127.748C127.748 59.8558 126.869 64.2733 125.162 68.3949L128.857 69.9256ZM120.626 82.2445C124.152 78.7185 126.949 74.5326 128.857 69.9256L125.162 68.3949C123.455 72.5165 120.952 76.2615 117.798 79.4161L120.626 82.2445ZM108.307 90.4757C112.914 88.5674 117.1 85.7705 120.626 82.2445L117.798 79.4161C114.643 82.5706 110.898 85.0729 106.777 86.7802L108.307 90.4757ZM93.7762 93.3661C98.7627 93.3661 103.7 92.3839 108.307 90.4757L106.777 86.7802C102.655 88.4874 98.2374 89.3661 93.7762 89.3661L93.7762 93.3661ZM79.2451 90.4757C83.852 92.3839 88.7897 93.3661 93.7762 93.3661V89.3661C89.315 89.3661 84.8975 88.4874 80.7759 86.7802L79.2451 90.4757ZM66.9263 82.2445C70.4523 85.7705 74.6382 88.5674 79.2451 90.4757L80.7759 86.7802C76.6542 85.0729 72.9093 82.5706 69.7547 79.4161L66.9263 82.2445ZM58.6951 69.9256C60.6033 74.5326 63.4003 78.7185 66.9263 82.2445L69.7547 79.4161C66.6002 76.2615 64.0978 72.5165 62.3906 68.3949L58.6951 69.9256ZM55.8047 55.3946C55.8047 60.3811 56.7868 65.3187 58.6951 69.9256L62.3906 68.3949C60.6834 64.2733 59.8047 59.8558 59.8047 55.3946H55.8047ZM69.0457 53.3946L57.8047 53.3946L57.8047 57.3946L69.0457 57.3946L69.0457 53.3946ZM72.7759 64.0932C71.6336 61.3354 71.0457 58.3796 71.0457 55.3946H67.0457C67.0457 58.9049 67.7371 62.3808 69.0804 65.6239L72.7759 64.0932ZM77.7033 71.4675C75.5926 69.3568 73.9182 66.851 72.7759 64.0932L69.0804 65.6239C70.4237 68.867 72.3927 71.8137 74.8749 74.2959L77.7033 71.4675ZM85.0776 76.3948C82.3198 75.2525 79.814 73.5782 77.7033 71.4675L74.8749 74.2959C77.357 76.7781 80.3038 78.747 83.5469 80.0904L85.0776 76.3948ZM93.7762 78.1251C90.7912 78.1251 87.8354 77.5372 85.0776 76.3948L83.5469 80.0904C86.79 81.4337 90.2659 82.1251 93.7762 82.1251V78.1251ZM102.475 76.3948C99.717 77.5372 96.7612 78.1251 93.7762 78.1251L93.7762 82.1251C97.2865 82.1251 100.762 81.4337 104.006 80.0904L102.475 76.3948ZM109.849 71.4675C107.738 73.5782 105.233 75.2525 102.475 76.3948L104.006 80.0904C107.249 78.747 110.195 76.7781 112.678 74.2959L109.849 71.4675ZM114.776 64.0932C113.634 66.851 111.96 69.3568 109.849 71.4675L112.678 74.2959C115.16 71.8137 117.129 68.867 118.472 65.6239L114.776 64.0932ZM116.507 55.3946C116.507 58.3796 115.919 61.3354 114.776 64.0932L118.472 65.6239C119.815 62.3808 120.507 58.9049 120.507 55.3946H116.507ZM129.748 53.3946H118.507V57.3946H129.748V53.3946ZM113.57 63.5934C114.647 60.9941 115.201 58.2081 115.201 55.3946H111.201C111.201 57.6828 110.75 59.9486 109.874 62.0627L113.57 63.5934ZM108.926 70.5441C110.915 68.5546 112.493 66.1928 113.57 63.5934L109.874 62.0627C108.999 64.1767 107.715 66.0976 106.097 67.7156L108.926 70.5441ZM101.975 75.1883C104.574 74.1116 106.936 72.5335 108.926 70.5441L106.097 67.7156C104.479 69.3337 102.558 70.6171 100.444 71.4928L101.975 75.1883ZM93.7762 76.8192C96.5897 76.8192 99.3757 76.265 101.975 75.1883L100.444 71.4928C98.3303 72.3685 96.0644 72.8192 93.7762 72.8192V76.8192ZM85.5774 75.1883C88.1767 76.265 90.9627 76.8192 93.7762 76.8192V72.8192C91.488 72.8192 89.2221 72.3685 87.1081 71.4928L85.5774 75.1883ZM78.6267 70.5441C80.6162 72.5335 82.978 74.1116 85.5774 75.1883L87.1081 71.4928C84.994 70.6171 83.0732 69.3337 81.4551 67.7156L78.6267 70.5441ZM73.9824 63.5934C75.0591 66.1928 76.6372 68.5546 78.6267 70.5441L81.4551 67.7156C79.8371 66.0976 78.5536 64.1767 77.678 62.0627L73.9824 63.5934ZM72.3516 55.3946C72.3516 58.2081 72.9057 60.9941 73.9824 63.5934L77.678 62.0627C76.8023 59.9486 76.3516 57.6828 76.3516 55.3946H72.3516ZM84.4368 53.3946L74.3516 53.3946L74.3516 57.3946L84.4368 57.3946L84.4368 53.3946ZM86.9954 58.2033C86.6266 57.3128 86.4368 56.3584 86.4368 55.3946H82.4368C82.4368 56.8837 82.7301 58.3582 83.2999 59.734L86.9954 58.2033ZM88.5864 60.5843C87.9049 59.9028 87.3643 59.0937 86.9954 58.2033L83.2999 59.734C83.8698 61.1098 84.705 62.3598 85.758 63.4128L88.5864 60.5843ZM90.9675 62.1753C90.0771 61.8065 89.268 61.2659 88.5864 60.5843L85.758 63.4128C86.811 64.4657 88.061 65.301 89.4368 65.8708L90.9675 62.1753ZM93.7762 62.734C92.8124 62.734 91.858 62.5442 90.9675 62.1753L89.4368 65.8709C90.8125 66.4407 92.2871 66.734 93.7762 66.734V62.734ZM96.5849 62.1753C95.6944 62.5442 94.74 62.734 93.7762 62.734V66.734C95.2653 66.734 96.7399 66.4407 98.1156 65.8709L96.5849 62.1753ZM98.966 60.5843C98.2844 61.2659 97.4753 61.8065 96.5849 62.1753L98.1156 65.8709C99.4914 65.301 100.741 64.4657 101.794 63.4128L98.966 60.5843ZM100.557 58.2033C100.188 59.0937 99.6475 59.9028 98.966 60.5843L101.794 63.4128C102.847 62.3598 103.683 61.1098 104.252 59.734L100.557 58.2033ZM101.116 55.3946C101.116 56.3584 100.926 57.3128 100.557 58.2033L104.252 59.734C104.822 58.3582 105.116 56.8837 105.116 55.3946H101.116ZM113.201 53.3946L103.116 53.3946V57.3946L113.201 57.3946V53.3946Z" fill="#5255A4" mask="url(#path-3-inside-2_3408_4354)"/>
<mask id="path-5-inside-3_3408_4354" fill="white">
<path fill-rule="evenodd" clip-rule="evenodd" d="M14.9996 38.1299C12.0196 38.1299 9.60385 40.5457 9.60385 43.5257C9.60385 46.5056 12.0196 48.9214 14.9996 48.9214C17.9796 48.9214 20.3953 46.5056 20.3953 43.5257C20.3953 40.5457 17.9796 38.1299 14.9996 38.1299ZM9.60385 35.9717C9.60385 31.2478 10.5343 26.5702 12.342 22.206C14.1498 17.8417 16.7994 13.8762 20.1397 10.536C23.4799 7.19569 27.4454 4.54605 31.8097 2.73831C36.1739 0.930573 40.8515 0.000140887 45.5754 0.000140474C50.2992 0.000140061 54.9768 0.930571 59.3411 2.73831C63.7053 4.54604 67.6708 7.19569 71.0111 10.536C74.3513 13.8762 77.001 17.8417 78.8087 22.206C80.6164 26.5702 81.5469 31.2478 81.5469 35.9717L70.3059 35.9717C70.3059 32.724 69.6662 29.5081 68.4234 26.5077C67.1806 23.5072 65.3589 20.781 63.0625 18.4845C60.766 16.1881 58.0398 14.3664 55.0393 13.1236C52.0389 11.8808 48.823 11.2411 45.5754 11.2411C42.3277 11.2411 39.1118 11.8808 36.1114 13.1236C33.1109 14.3664 30.3847 16.1881 28.0882 18.4845C25.7918 20.781 23.9702 23.5072 22.7273 26.5077C21.4845 29.5081 20.8448 32.724 20.8448 35.9717L9.60385 35.9717ZM26.1507 35.9717C26.1507 33.4208 26.6532 30.8949 27.6294 28.5382C28.6055 26.1815 30.0363 24.0401 31.8401 22.2364C33.6438 20.4326 35.7852 19.0018 38.1419 18.0256C40.4986 17.0495 43.0245 16.547 45.5754 16.547C48.1262 16.547 50.6521 17.0495 53.0088 18.0256C55.3655 19.0018 57.5069 20.4326 59.3106 22.2364C61.1144 24.0401 62.5452 26.1815 63.5214 28.5382C64.4975 30.8949 65 33.4208 65 35.9716L54.9148 35.9716C54.9148 34.7452 54.6732 33.5307 54.2039 32.3976C53.7345 31.2645 53.0466 30.2349 52.1793 29.3677C51.3121 28.5004 50.2825 27.8125 49.1494 27.3431C48.0163 26.8738 46.8018 26.6322 45.5754 26.6322C44.3489 26.6322 43.1344 26.8738 42.0013 27.3431C40.8682 27.8125 39.8386 28.5004 38.9714 29.3677C38.1041 30.2349 37.4162 31.2645 36.9468 32.3976C36.4775 33.5307 36.2359 34.7452 36.2359 35.9716L26.1507 35.9717Z"/>
</mask>
<path fill-rule="evenodd" clip-rule="evenodd" d="M14.9996 38.1299C12.0196 38.1299 9.60385 40.5457 9.60385 43.5257C9.60385 46.5056 12.0196 48.9214 14.9996 48.9214C17.9796 48.9214 20.3953 46.5056 20.3953 43.5257C20.3953 40.5457 17.9796 38.1299 14.9996 38.1299ZM9.60385 35.9717C9.60385 31.2478 10.5343 26.5702 12.342 22.206C14.1498 17.8417 16.7994 13.8762 20.1397 10.536C23.4799 7.19569 27.4454 4.54605 31.8097 2.73831C36.1739 0.930573 40.8515 0.000140887 45.5754 0.000140474C50.2992 0.000140061 54.9768 0.930571 59.3411 2.73831C63.7053 4.54604 67.6708 7.19569 71.0111 10.536C74.3513 13.8762 77.001 17.8417 78.8087 22.206C80.6164 26.5702 81.5469 31.2478 81.5469 35.9717L70.3059 35.9717C70.3059 32.724 69.6662 29.5081 68.4234 26.5077C67.1806 23.5072 65.3589 20.781 63.0625 18.4845C60.766 16.1881 58.0398 14.3664 55.0393 13.1236C52.0389 11.8808 48.823 11.2411 45.5754 11.2411C42.3277 11.2411 39.1118 11.8808 36.1114 13.1236C33.1109 14.3664 30.3847 16.1881 28.0882 18.4845C25.7918 20.781 23.9702 23.5072 22.7273 26.5077C21.4845 29.5081 20.8448 32.724 20.8448 35.9717L9.60385 35.9717ZM26.1507 35.9717C26.1507 33.4208 26.6532 30.8949 27.6294 28.5382C28.6055 26.1815 30.0363 24.0401 31.8401 22.2364C33.6438 20.4326 35.7852 19.0018 38.1419 18.0256C40.4986 17.0495 43.0245 16.547 45.5754 16.547C48.1262 16.547 50.6521 17.0495 53.0088 18.0256C55.3655 19.0018 57.5069 20.4326 59.3106 22.2364C61.1144 24.0401 62.5452 26.1815 63.5214 28.5382C64.4975 30.8949 65 33.4208 65 35.9716L54.9148 35.9716C54.9148 34.7452 54.6732 33.5307 54.2039 32.3976C53.7345 31.2645 53.0466 30.2349 52.1793 29.3677C51.3121 28.5004 50.2825 27.8125 49.1494 27.3431C48.0163 26.8738 46.8018 26.6322 45.5754 26.6322C44.3489 26.6322 43.1344 26.8738 42.0013 27.3431C40.8682 27.8125 39.8386 28.5004 38.9714 29.3677C38.1041 30.2349 37.4162 31.2645 36.9468 32.3976C36.4775 33.5307 36.2359 34.7452 36.2359 35.9716L26.1507 35.9717Z" fill="white"/>
<path d="M12.342 22.206L14.1898 22.9713L14.1898 22.9713L12.342 22.206ZM9.60385 35.9717L7.60385 35.9717L7.60385 37.9717L9.60385 37.9717L9.60385 35.9717ZM31.8097 2.73831L31.0443 0.890549L31.0443 0.89055L31.8097 2.73831ZM59.3411 2.73831L58.5757 4.58607L58.5757 4.58607L59.3411 2.73831ZM71.0111 10.536L69.5968 11.9502L69.5968 11.9502L71.0111 10.536ZM78.8087 22.206L76.9609 22.9713L78.8087 22.206ZM81.5469 35.9717L81.5469 37.9717L83.5469 37.9717L83.5469 35.9717L81.5469 35.9717ZM70.3059 35.9717L68.3059 35.9717L68.3059 37.9717L70.3059 37.9717L70.3059 35.9717ZM68.4234 26.5077L70.2712 25.7423L70.2712 25.7423L68.4234 26.5077ZM63.0625 18.4845L64.4767 17.0703L64.4767 17.0703L63.0625 18.4845ZM36.1114 13.1236L35.346 11.2759L35.346 11.2759L36.1114 13.1236ZM28.0882 18.4845L26.674 17.0703L26.674 17.0703L28.0882 18.4845ZM20.8448 35.9717L20.8448 37.9717L22.8448 37.9717L22.8448 35.9717L20.8448 35.9717ZM26.1507 35.9717L24.1507 35.9717L24.1507 37.9717L26.1507 37.9717L26.1507 35.9717ZM31.8401 22.2364L33.2543 23.6506L33.2543 23.6506L31.8401 22.2364ZM38.1419 18.0256L38.9072 19.8734L38.9072 19.8734L38.1419 18.0256ZM53.0088 18.0256L53.7742 16.1779L53.7742 16.1779L53.0088 18.0256ZM59.3106 22.2364L57.8964 23.6506L57.8964 23.6506L59.3106 22.2364ZM63.5214 28.5382L61.6736 29.3035L61.6736 29.3035L63.5214 28.5382ZM65 35.9716L65 37.9716L67 37.9716L67 35.9716L65 35.9716ZM54.9148 35.9716L52.9148 35.9716L52.9148 37.9716L54.9148 37.9716L54.9148 35.9716ZM54.2039 32.3976L56.0516 31.6322L56.0516 31.6322L54.2039 32.3976ZM49.1494 27.3431L49.9148 25.4954L49.9148 25.4954L49.1494 27.3431ZM38.9714 29.3677L40.3856 30.7819L40.3856 30.7819L38.9714 29.3677ZM36.9468 32.3976L38.7946 33.163L38.7946 33.163L36.9468 32.3976ZM36.2359 35.9716L36.2359 37.9716L38.2359 37.9716L38.2359 35.9716L36.2359 35.9716ZM11.6039 43.5257C11.6039 41.6503 13.1242 40.1299 14.9996 40.1299L14.9996 36.1299C10.915 36.1299 7.60385 39.4411 7.60385 43.5257L11.6039 43.5257ZM14.9996 46.9214C13.1242 46.9214 11.6039 45.4011 11.6039 43.5257L7.60385 43.5257C7.60385 47.6102 10.915 50.9214 14.9996 50.9214L14.9996 46.9214ZM18.3953 43.5257C18.3953 45.4011 16.875 46.9214 14.9996 46.9214L14.9996 50.9214C19.0841 50.9214 22.3953 47.6102 22.3953 43.5257L18.3953 43.5257ZM14.9996 40.1299C16.875 40.1299 18.3953 41.6503 18.3953 43.5257L22.3953 43.5257C22.3953 39.4411 19.0841 36.1299 14.9996 36.1299L14.9996 40.1299ZM10.4943 21.4406C8.58601 26.0475 7.60385 30.9852 7.60385 35.9717L11.6039 35.9717C11.6038 31.5105 12.4825 27.0929 14.1898 22.9713L10.4943 21.4406ZM18.7254 9.12174C15.1995 12.6477 12.4025 16.8337 10.4943 21.4406L14.1898 22.9713C15.897 18.8497 18.3993 15.1047 21.5539 11.9502L18.7254 9.12174ZM31.0443 0.89055C26.4374 2.7988 22.2514 5.59576 18.7254 9.12174L21.5539 11.9502C24.7084 8.79562 28.4534 6.2933 32.575 4.58607L31.0443 0.89055ZM45.5754 -1.99986C40.5889 -1.99986 35.6512 -1.0177 31.0443 0.890549L32.575 4.58607C36.6966 2.87884 41.1142 2.00014 45.5754 2.00014L45.5754 -1.99986ZM60.1064 0.890551C55.4995 -1.0177 50.5619 -1.99986 45.5754 -1.99986L45.5754 2.00014C50.0366 2.00014 54.4541 2.87884 58.5757 4.58607L60.1064 0.890551ZM72.4253 9.12174C68.8993 5.59576 64.7133 2.7988 60.1064 0.89055L58.5757 4.58607C62.6973 6.29329 66.4423 8.79562 69.5968 11.9502L72.4253 9.12174ZM80.6565 21.4406C78.7482 16.8337 75.9513 12.6477 72.4253 9.12174L69.5968 11.9502C72.7514 15.1047 75.2537 18.8497 76.9609 22.9713L80.6565 21.4406ZM83.5469 35.9717C83.5469 30.9852 82.5647 26.0475 80.6565 21.4406L76.9609 22.9713C78.6682 27.0929 79.5469 31.5105 79.5469 35.9717L83.5469 35.9717ZM70.3059 37.9717L81.5469 37.9717L81.5469 33.9717L70.3059 33.9717L70.3059 37.9717ZM66.5756 27.2731C67.718 30.0308 68.3059 32.9866 68.3059 35.9717L72.3059 35.9717C72.3059 32.4613 71.6145 28.9854 70.2712 25.7423L66.5756 27.2731ZM61.6483 19.8987C63.759 22.0095 65.4333 24.5153 66.5756 27.2731L70.2712 25.7423C68.9278 22.4992 66.9589 19.5525 64.4767 17.0703L61.6483 19.8987ZM54.274 14.9714C57.0318 16.1137 59.5376 17.788 61.6483 19.8987L64.4767 17.0703C61.9945 14.5882 59.0478 12.6192 55.8047 11.2759L54.274 14.9714ZM45.5754 13.2411C48.5604 13.2411 51.5162 13.8291 54.274 14.9714L55.8047 11.2759C52.5616 9.93252 49.0857 9.24112 45.5754 9.24112L45.5754 13.2411ZM36.8768 14.9714C39.6346 13.8291 42.5903 13.2411 45.5754 13.2411L45.5754 9.24112C42.0651 9.24112 38.5891 9.93253 35.346 11.2759L36.8768 14.9714ZM29.5024 19.8987C31.6132 17.788 34.119 16.1137 36.8768 14.9714L35.346 11.2759C32.1029 12.6192 29.1562 14.5882 26.674 17.0703L29.5024 19.8987ZM24.5751 27.2731C25.7174 24.5153 27.3917 22.0095 29.5024 19.8987L26.674 17.0703C24.1919 19.5525 22.2229 22.4992 20.8796 25.7423L24.5751 27.2731ZM22.8448 35.9717C22.8448 32.9866 23.4328 30.0308 24.5751 27.2731L20.8796 25.7423C19.5362 28.9854 18.8448 32.4614 18.8448 35.9717L22.8448 35.9717ZM9.60385 37.9717L20.8448 37.9717L20.8448 33.9717L9.60385 33.9717L9.60385 37.9717ZM25.7816 27.7728C24.7049 30.3722 24.1507 33.1581 24.1507 35.9717L28.1507 35.9717C28.1507 33.6834 28.6014 31.4176 29.4771 29.3035L25.7816 27.7728ZM30.4259 20.8222C28.4364 22.8116 26.8583 25.1734 25.7816 27.7728L29.4771 29.3035C30.3528 27.1895 31.6363 25.2686 33.2543 23.6506L30.4259 20.8222ZM37.3765 16.1779C34.7772 17.2546 32.4153 18.8327 30.4259 20.8222L33.2543 23.6506C34.8723 22.0326 36.7932 20.7491 38.9072 19.8734L37.3765 16.1779ZM45.5754 14.547C42.7618 14.547 39.9759 15.1012 37.3765 16.1779L38.9072 19.8734C41.0213 18.9977 43.2871 18.547 45.5754 18.547L45.5754 14.547ZM53.7742 16.1779C51.1749 15.1012 48.3889 14.547 45.5754 14.547L45.5754 18.547C47.8636 18.547 50.1294 18.9977 52.2435 19.8734L53.7742 16.1779ZM60.7249 20.8222C58.7354 18.8327 56.3736 17.2546 53.7742 16.1779L52.2435 19.8734C54.3575 20.7491 56.2784 22.0326 57.8964 23.6506L60.7249 20.8222ZM65.3691 27.7728C64.2924 25.1734 62.7143 22.8116 60.7249 20.8222L57.8964 23.6506C59.5145 25.2686 60.7979 27.1895 61.6736 29.3035L65.3691 27.7728ZM67 35.9716C67 33.1581 66.4458 30.3722 65.3691 27.7728L61.6736 29.3035C62.5493 31.4176 63 33.6834 63 35.9716L67 35.9716ZM54.9148 37.9716L65 37.9716L65 33.9716L54.9148 33.9716L54.9148 37.9716ZM52.3561 33.163C52.725 34.0534 52.9148 35.0078 52.9148 35.9716L56.9148 35.9716C56.9148 34.4825 56.6215 33.008 56.0516 31.6322L52.3561 33.163ZM50.7651 30.7819C51.4467 31.4634 51.9873 32.2725 52.3561 33.163L56.0516 31.6322C55.4818 30.2565 54.6465 29.0064 53.5936 27.9534L50.7651 30.7819ZM48.384 29.1909C49.2745 29.5597 50.0836 30.1003 50.7651 30.7819L53.5936 27.9534C52.5406 26.9005 51.2905 26.0652 49.9148 25.4954L48.384 29.1909ZM45.5754 28.6322C46.5392 28.6322 47.4936 28.822 48.384 29.1909L49.9148 25.4954C48.539 24.9255 47.0645 24.6322 45.5754 24.6322L45.5754 28.6322ZM42.7667 29.1909C43.6571 28.822 44.6115 28.6322 45.5754 28.6322L45.5754 24.6322C44.0862 24.6322 42.6117 24.9255 41.2359 25.4954L42.7667 29.1909ZM40.3856 30.7819C41.0671 30.1003 41.8762 29.5597 42.7667 29.1909L41.2359 25.4954C39.8602 26.0652 38.6101 26.9005 37.5572 27.9535L40.3856 30.7819ZM38.7946 33.163C39.1634 32.2725 39.7041 31.4634 40.3856 30.7819L37.5572 27.9534C36.5042 29.0064 35.6689 30.2565 35.0991 31.6322L38.7946 33.163ZM38.2359 35.9716C38.2359 35.0078 38.4258 34.0534 38.7946 33.163L35.0991 31.6322C34.5292 33.008 34.2359 34.4825 34.2359 35.9716L38.2359 35.9716ZM26.1507 37.9717L36.2359 37.9716L36.2359 33.9716L26.1507 33.9717L26.1507 37.9717Z" fill="#5255A4" mask="url(#path-5-inside-3_3408_4354)"/>
</g>
<defs>
<clipPath id="clip0_3408_4354">
<rect width="93" height="92" fill="white"/>
</clipPath>
</defs>
</svg>
