<svg width="24" height="24" viewBox="0 0 24 24" fill="none" xmlns="http://www.w3.org/2000/svg">
<g id="visible--eye-eyeball-open-view">
<g id="visible--eye-eyeball-open-view_2">
<path id="Vector" d="M22.5632 10.7079C22.8443 11.0623 23 11.5227 23 12C23 12.4774 22.8443 12.9378 22.5632 13.2922C20.7829 15.4715 16.7305 19.7144 12 19.7144C7.26947 19.7144 3.21715 15.4715 1.43684 13.2922C1.15565 12.9378 1 12.4774 1 12C1 11.5227 1.15565 11.0623 1.43684 10.7079C3.21715 8.52855 7.26947 4.28564 12 4.28564C16.7305 4.28564 20.7829 8.52855 22.5632 10.7079Z" stroke="black" stroke-width="2" stroke-linecap="round" stroke-linejoin="round"/>
<path id="Vector_2" d="M12 15.4284C13.8728 15.4284 15.391 13.8934 15.391 11.9999C15.391 10.1063 13.8728 8.57129 12 8.57129C10.1271 8.57129 8.60889 10.1063 8.60889 11.9999C8.60889 13.8934 10.1271 15.4284 12 15.4284Z" stroke="black" stroke-width="2" stroke-linecap="round" stroke-linejoin="round"/>
</g>
</g>
</svg>
